<svg width="512" height="512" viewBox="0 0 512 512" fill="none" xmlns="http://www.w3.org/2000/svg">
<path d="M254.95 37.4C230.45 37.4 207.95 49.2 191.05 70.8C174.15 92.3 163.95 123.4 163.95 157.3C163.95 193.3 176.05 224.8 194.95 246.8L208.45 261.8L188.85 266.4C136.55 278.3 111.45 303.3 97.1 341.6C83.4 377.3 81.5 426.4 81 484.9H430.95C430.75 426.2 430.45 375.6 417.95 339.4C404.55 300 380.05 275.1 323.95 264L304.05 260.3L316.95 244.6C334.65 222.7 345.75 192 345.75 157.1C345.75 123.2 335.45 92.2 318.55 70.8C301.75 49.1 279.25 37.2 254.95 37.4Z" fill="white"/>
</svg>
