<svg width="512" height="512" viewBox="0 0 512 512" fill="none" xmlns="http://www.w3.org/2000/svg">
<g clip-path="url(#clip0_4_455)">
<path d="M117.46 82.097C103.05 110.312 142.584 152.685 134.833 183.404C118.251 249.12 53.625 327.86 -1.41299 374.572V471.7C104.722 424.73 178.952 258.159 214.467 159.819C260.995 156.824 298.641 154.322 332.794 150.483C327.442 160.891 322.726 173.076 316.374 186.057C281.744 256.828 254.214 396.093 273.329 440.944C291.918 472.561 333.147 482.173 367.271 481.651C399.345 481.16 441.213 468.831 454.361 440.704C462.691 421.923 465.508 398.437 463.741 372.182C457.825 384.849 442.825 390.169 431.051 390.288C419.826 389.383 409.692 386.771 402.72 379.002C395.807 388.655 382.362 392.772 372.337 392.873C355.838 392.296 338.372 382.783 338.009 366.741C338.009 362.705 339.199 358.996 341.139 355.752C321.41 314.547 335.779 201.912 351.03 148.258C362.65 146.717 373.962 144.962 385.188 142.926C391.818 168.664 398.695 241.216 401.505 270.825C426.629 273.408 446.385 294.781 446.385 320.561C446.385 327.254 445.045 333.645 442.634 339.493C450.374 341.726 457.368 345.913 461.604 352.149C457.203 321.847 447.491 246.753 433.661 213.422C423.497 188.927 415.886 160.219 400.716 139.914C422.914 135.321 445.218 129.464 469.44 121.704C396.635 110.717 312.242 108.387 239.437 106.454C239.437 106.454 213.761 62.326 191.407 56.942C166.095 50.845 129.105 60.587 117.461 82.096L117.46 82.097ZM173.716 80.214C193.105 79.666 213.569 99.194 221.849 117.693C205.327 123.147 176.326 118.477 164.679 105.573C157.695 97.836 159.164 82.447 169.856 80.597C171.132 80.3773 172.422 80.2493 173.716 80.214ZM364.386 320.562C364.386 328.185 367.006 335.148 371.394 340.622C382.088 341.392 395.282 345.942 400.989 352.234C416.557 350.026 428.386 336.777 428.386 320.562C428.386 302.782 414.166 288.562 396.386 288.562C378.606 288.562 364.386 302.782 364.386 320.562ZM431.53 356.039C426.987 360.547 421.625 364.147 415.733 366.646C422.1 373.849 447.159 373.854 447.38 364.156C445.384 358.072 436.995 356.192 431.53 356.039ZM372.337 358.607C367.81 359.067 356.155 360.332 356.009 366.742C358.061 372.946 366.802 374.814 372.337 374.874C376.863 374.414 388.519 373.15 388.665 366.742C386.615 360.534 377.873 358.667 372.337 358.607Z" fill="white"/>
</g>
<defs>
<clipPath id="clip0_4_455">
<rect width="512" height="512" fill="white"/>
</clipPath>
</defs>
</svg>
