<svg width="48" height="48" viewBox="0 0 48 48" fill="none" xmlns="http://www.w3.org/2000/svg">
<rect width="48" height="48" fill="#0ea5e9" />
<g clip-path="url(#clip0_81_1740)">
<path d="M11.0119 7.69659C9.66095 10.3418 13.3673 14.3142 12.6406 17.1941C11.086 23.355 5.02735 30.7369 -0.132462 35.1161V44.2219C9.81769 39.8184 16.7768 24.2024 20.1063 14.983C24.4683 14.7023 27.9976 14.4677 31.1994 14.1078C30.6977 15.0835 30.2556 16.2259 29.6601 17.4428C26.4135 24.0776 23.8326 37.1337 25.6246 41.3385C27.3673 44.3026 31.2325 45.2037 34.4317 45.1548C37.4386 45.1088 41.3637 43.9529 42.5964 41.316C43.3773 39.5553 43.6414 37.3535 43.4757 34.8921C42.9211 36.0796 41.5149 36.5783 40.411 36.5895C39.3587 36.5047 38.4086 36.2598 37.755 35.5314C37.1069 36.4364 35.8464 36.8224 34.9066 36.8318C33.3598 36.7778 31.7224 35.8859 31.6884 34.382C31.6884 34.0036 31.7999 33.6559 31.9818 33.3518C30.1322 29.4888 31.4793 18.9293 32.9091 13.8992C33.9984 13.7547 35.0589 13.5902 36.1114 13.3993C36.7329 15.8123 37.3777 22.614 37.6411 25.3898C39.9965 25.632 41.8486 27.6357 41.8486 30.0526C41.8486 30.6801 41.723 31.2792 41.4969 31.8275C42.2226 32.0368 42.8783 32.4293 43.2754 33.014C42.8628 30.1732 41.9523 23.1331 40.6557 20.0083C39.7029 17.7119 38.9893 15.0205 37.5671 13.1169C39.6482 12.6863 41.7392 12.1373 44.01 11.4098C37.1845 10.3797 29.2727 10.1613 22.4472 9.98006C22.4472 9.98006 20.0401 5.84306 17.9444 5.33831C15.5714 4.76672 12.1036 5.68003 11.012 7.6965L11.0119 7.69659ZM16.2859 7.52006C18.1036 7.46869 20.0221 9.29944 20.7984 11.0337C19.2494 11.545 16.5306 11.1072 15.4387 9.89747C14.7839 9.17213 14.9216 7.72941 15.924 7.55597C16.0436 7.53538 16.1646 7.52338 16.2859 7.52006ZM34.1612 30.0527C34.1612 30.7673 34.4068 31.4201 34.8182 31.9333C35.8208 32.0055 37.0577 32.4321 37.5927 33.0219C39.0522 32.8149 40.1612 31.5728 40.1612 30.0527C40.1612 28.3858 38.8281 27.0527 37.1612 27.0527C35.4943 27.0527 34.1612 28.3858 34.1612 30.0527ZM40.4559 33.3787C40.03 33.8013 39.5274 34.1388 38.975 34.3731C39.5719 35.0483 41.9212 35.0488 41.9419 34.1396C41.7548 33.5693 40.9683 33.393 40.4559 33.3787ZM34.9066 33.6194C34.4822 33.6625 33.3895 33.7811 33.3759 34.3821C33.5682 34.9637 34.3877 35.1388 34.9066 35.1444C35.3309 35.1013 36.4237 34.9828 36.4374 34.3821C36.2452 33.8001 35.4256 33.625 34.9066 33.6194Z" fill="white"/>
</g>
<defs>
<clipPath id="clip0_81_1740">
<rect width="48" height="48" fill="white"/>
</clipPath>
</defs>
</svg>
